<mxfile host="app.diagrams.net" agent="Mozilla/5.0 (Windows NT 10.0; Win64; x64) AppleWebKit/537.36 (KHTML, like Gecko) Chrome/141.0.0.0 Safari/537.36" version="28.2.8">
  <diagram name="Página-1" id="vzn7hVTmKNhKhk8oJcl7">
    <mxGraphModel dx="1678" dy="874" grid="1" gridSize="10" guides="1" tooltips="1" connect="1" arrows="1" fold="1" page="1" pageScale="1" pageWidth="827" pageHeight="1169" math="0" shadow="0">
      <root>
        <mxCell id="0" />
        <mxCell id="1" parent="0" />
        <mxCell id="VgeGi53NFvHiz8YJyW3t-1" value="CAMIONES" style="rounded=0;whiteSpace=wrap;html=1;" vertex="1" parent="1">
          <mxGeometry x="600" y="380" width="120" height="60" as="geometry" />
        </mxCell>
        <mxCell id="VgeGi53NFvHiz8YJyW3t-3" value="PAQUETES" style="rounded=0;whiteSpace=wrap;html=1;" vertex="1" parent="1">
          <mxGeometry x="210" y="115" width="120" height="60" as="geometry" />
        </mxCell>
        <mxCell id="VgeGi53NFvHiz8YJyW3t-4" value="PROVINCIAS" style="rounded=0;whiteSpace=wrap;html=1;" vertex="1" parent="1">
          <mxGeometry x="210" y="380" width="120" height="60" as="geometry" />
        </mxCell>
        <mxCell id="VgeGi53NFvHiz8YJyW3t-5" value="CAMIONERO" style="rounded=0;whiteSpace=wrap;html=1;" vertex="1" parent="1">
          <mxGeometry x="600" y="115" width="120" height="60" as="geometry" />
        </mxCell>
        <mxCell id="VgeGi53NFvHiz8YJyW3t-7" value="&lt;b&gt;DNI&lt;/b&gt;" style="ellipse;whiteSpace=wrap;html=1;" vertex="1" parent="1">
          <mxGeometry x="480" y="35" width="80" height="40" as="geometry" />
        </mxCell>
        <mxCell id="VgeGi53NFvHiz8YJyW3t-12" value="Nombre" style="ellipse;whiteSpace=wrap;html=1;" vertex="1" parent="1">
          <mxGeometry x="540" y="5" width="80" height="40" as="geometry" />
        </mxCell>
        <mxCell id="VgeGi53NFvHiz8YJyW3t-13" value="Tlf" style="ellipse;whiteSpace=wrap;html=1;" vertex="1" parent="1">
          <mxGeometry x="620" y="5" width="80" height="40" as="geometry" />
        </mxCell>
        <mxCell id="VgeGi53NFvHiz8YJyW3t-14" value="Dirección" style="ellipse;whiteSpace=wrap;html=1;" vertex="1" parent="1">
          <mxGeometry x="700" y="5" width="80" height="40" as="geometry" />
        </mxCell>
        <mxCell id="VgeGi53NFvHiz8YJyW3t-15" value="Población" style="ellipse;whiteSpace=wrap;html=1;" vertex="1" parent="1">
          <mxGeometry x="480" y="75" width="80" height="40" as="geometry" />
        </mxCell>
        <mxCell id="VgeGi53NFvHiz8YJyW3t-16" value="Salario" style="ellipse;whiteSpace=wrap;html=1;" vertex="1" parent="1">
          <mxGeometry x="760" y="35" width="80" height="40" as="geometry" />
        </mxCell>
        <mxCell id="VgeGi53NFvHiz8YJyW3t-17" value="" style="endArrow=none;html=1;rounded=0;exitX=0.5;exitY=0;exitDx=0;exitDy=0;entryX=0.5;entryY=1;entryDx=0;entryDy=0;" edge="1" parent="1" source="VgeGi53NFvHiz8YJyW3t-5" target="VgeGi53NFvHiz8YJyW3t-13">
          <mxGeometry width="50" height="50" relative="1" as="geometry">
            <mxPoint x="630" y="115" as="sourcePoint" />
            <mxPoint x="680" y="65" as="targetPoint" />
          </mxGeometry>
        </mxCell>
        <mxCell id="VgeGi53NFvHiz8YJyW3t-18" value="" style="endArrow=none;html=1;rounded=0;exitX=1;exitY=0.5;exitDx=0;exitDy=0;entryX=0;entryY=0;entryDx=0;entryDy=0;" edge="1" parent="1" source="VgeGi53NFvHiz8YJyW3t-15" target="VgeGi53NFvHiz8YJyW3t-5">
          <mxGeometry width="50" height="50" relative="1" as="geometry">
            <mxPoint x="590" y="125" as="sourcePoint" />
            <mxPoint x="590" y="55" as="targetPoint" />
          </mxGeometry>
        </mxCell>
        <mxCell id="VgeGi53NFvHiz8YJyW3t-19" value="" style="endArrow=none;html=1;rounded=0;exitX=0.25;exitY=0;exitDx=0;exitDy=0;entryX=1;entryY=0.5;entryDx=0;entryDy=0;" edge="1" parent="1" source="VgeGi53NFvHiz8YJyW3t-5" target="VgeGi53NFvHiz8YJyW3t-7">
          <mxGeometry width="50" height="50" relative="1" as="geometry">
            <mxPoint x="610" y="145" as="sourcePoint" />
            <mxPoint x="610" y="75" as="targetPoint" />
          </mxGeometry>
        </mxCell>
        <mxCell id="VgeGi53NFvHiz8YJyW3t-20" value="" style="endArrow=none;html=1;rounded=0;exitX=0.25;exitY=0;exitDx=0;exitDy=0;entryX=0.5;entryY=1;entryDx=0;entryDy=0;" edge="1" parent="1" source="VgeGi53NFvHiz8YJyW3t-5" target="VgeGi53NFvHiz8YJyW3t-12">
          <mxGeometry width="50" height="50" relative="1" as="geometry">
            <mxPoint x="620" y="135" as="sourcePoint" />
            <mxPoint x="620" y="65" as="targetPoint" />
          </mxGeometry>
        </mxCell>
        <mxCell id="VgeGi53NFvHiz8YJyW3t-21" value="" style="endArrow=none;html=1;rounded=0;exitX=0.75;exitY=0;exitDx=0;exitDy=0;entryX=0.5;entryY=1;entryDx=0;entryDy=0;" edge="1" parent="1" source="VgeGi53NFvHiz8YJyW3t-5" target="VgeGi53NFvHiz8YJyW3t-14">
          <mxGeometry width="50" height="50" relative="1" as="geometry">
            <mxPoint x="730" y="155" as="sourcePoint" />
            <mxPoint x="730" y="85" as="targetPoint" />
          </mxGeometry>
        </mxCell>
        <mxCell id="VgeGi53NFvHiz8YJyW3t-22" value="" style="endArrow=none;html=1;rounded=0;exitX=0;exitY=1;exitDx=0;exitDy=0;entryX=1;entryY=0;entryDx=0;entryDy=0;" edge="1" parent="1" source="VgeGi53NFvHiz8YJyW3t-16" target="VgeGi53NFvHiz8YJyW3t-5">
          <mxGeometry width="50" height="50" relative="1" as="geometry">
            <mxPoint x="760" y="165" as="sourcePoint" />
            <mxPoint x="760" y="95" as="targetPoint" />
          </mxGeometry>
        </mxCell>
        <mxCell id="VgeGi53NFvHiz8YJyW3t-23" value="&lt;b&gt;Id_Paquete&lt;/b&gt;" style="ellipse;whiteSpace=wrap;html=1;" vertex="1" parent="1">
          <mxGeometry x="130" y="35" width="80" height="40" as="geometry" />
        </mxCell>
        <mxCell id="VgeGi53NFvHiz8YJyW3t-24" value="Descripción" style="ellipse;whiteSpace=wrap;html=1;" vertex="1" parent="1">
          <mxGeometry x="190" y="5" width="80" height="40" as="geometry" />
        </mxCell>
        <mxCell id="VgeGi53NFvHiz8YJyW3t-25" value="Dirección_Destinatario" style="ellipse;whiteSpace=wrap;html=1;" vertex="1" parent="1">
          <mxGeometry x="330" y="35" width="80" height="40" as="geometry" />
        </mxCell>
        <mxCell id="VgeGi53NFvHiz8YJyW3t-26" value="Destinatario" style="ellipse;whiteSpace=wrap;html=1;" vertex="1" parent="1">
          <mxGeometry x="270" y="5" width="80" height="40" as="geometry" />
        </mxCell>
        <mxCell id="VgeGi53NFvHiz8YJyW3t-28" value="" style="endArrow=none;html=1;rounded=0;exitX=0.5;exitY=1;exitDx=0;exitDy=0;entryX=0;entryY=0;entryDx=0;entryDy=0;" edge="1" parent="1" source="VgeGi53NFvHiz8YJyW3t-23" target="VgeGi53NFvHiz8YJyW3t-3">
          <mxGeometry width="50" height="50" relative="1" as="geometry">
            <mxPoint x="270" y="125" as="sourcePoint" />
            <mxPoint x="320" y="75" as="targetPoint" />
          </mxGeometry>
        </mxCell>
        <mxCell id="VgeGi53NFvHiz8YJyW3t-29" value="" style="endArrow=none;html=1;rounded=0;exitX=0.5;exitY=1;exitDx=0;exitDy=0;entryX=0.25;entryY=0;entryDx=0;entryDy=0;" edge="1" parent="1" source="VgeGi53NFvHiz8YJyW3t-24" target="VgeGi53NFvHiz8YJyW3t-3">
          <mxGeometry width="50" height="50" relative="1" as="geometry">
            <mxPoint x="250" y="85" as="sourcePoint" />
            <mxPoint x="290" y="125" as="targetPoint" />
          </mxGeometry>
        </mxCell>
        <mxCell id="VgeGi53NFvHiz8YJyW3t-30" value="" style="endArrow=none;html=1;rounded=0;exitX=0.377;exitY=1.046;exitDx=0;exitDy=0;entryX=0.5;entryY=0;entryDx=0;entryDy=0;exitPerimeter=0;" edge="1" parent="1" source="VgeGi53NFvHiz8YJyW3t-26" target="VgeGi53NFvHiz8YJyW3t-3">
          <mxGeometry width="50" height="50" relative="1" as="geometry">
            <mxPoint x="290" y="85" as="sourcePoint" />
            <mxPoint x="330" y="125" as="targetPoint" />
          </mxGeometry>
        </mxCell>
        <mxCell id="VgeGi53NFvHiz8YJyW3t-31" value="" style="endArrow=none;html=1;rounded=0;exitX=0;exitY=1;exitDx=0;exitDy=0;entryX=0.75;entryY=0;entryDx=0;entryDy=0;" edge="1" parent="1" source="VgeGi53NFvHiz8YJyW3t-25" target="VgeGi53NFvHiz8YJyW3t-3">
          <mxGeometry width="50" height="50" relative="1" as="geometry">
            <mxPoint x="340" y="75" as="sourcePoint" />
            <mxPoint x="380" y="115" as="targetPoint" />
          </mxGeometry>
        </mxCell>
        <mxCell id="VgeGi53NFvHiz8YJyW3t-32" value="&lt;b&gt;Cod_Provincia&lt;/b&gt;" style="ellipse;whiteSpace=wrap;html=1;" vertex="1" parent="1">
          <mxGeometry x="90" y="370" width="80" height="40" as="geometry" />
        </mxCell>
        <mxCell id="VgeGi53NFvHiz8YJyW3t-33" value="&lt;b&gt;Nombre&lt;/b&gt;" style="ellipse;whiteSpace=wrap;html=1;" vertex="1" parent="1">
          <mxGeometry x="90" y="410" width="80" height="40" as="geometry" />
        </mxCell>
        <mxCell id="VgeGi53NFvHiz8YJyW3t-34" value="" style="endArrow=none;html=1;rounded=0;exitX=1;exitY=0.5;exitDx=0;exitDy=0;entryX=0;entryY=0.25;entryDx=0;entryDy=0;" edge="1" parent="1" source="VgeGi53NFvHiz8YJyW3t-32" target="VgeGi53NFvHiz8YJyW3t-4">
          <mxGeometry width="50" height="50" relative="1" as="geometry">
            <mxPoint x="170" y="340" as="sourcePoint" />
            <mxPoint x="210" y="360" as="targetPoint" />
          </mxGeometry>
        </mxCell>
        <mxCell id="VgeGi53NFvHiz8YJyW3t-35" value="" style="endArrow=none;html=1;rounded=0;exitX=1;exitY=0.5;exitDx=0;exitDy=0;entryX=0;entryY=0.75;entryDx=0;entryDy=0;" edge="1" parent="1" source="VgeGi53NFvHiz8YJyW3t-33" target="VgeGi53NFvHiz8YJyW3t-4">
          <mxGeometry width="50" height="50" relative="1" as="geometry">
            <mxPoint x="150" y="460" as="sourcePoint" />
            <mxPoint x="190" y="480" as="targetPoint" />
          </mxGeometry>
        </mxCell>
        <mxCell id="VgeGi53NFvHiz8YJyW3t-36" value="Matrícula" style="ellipse;whiteSpace=wrap;html=1;" vertex="1" parent="1">
          <mxGeometry x="760" y="320" width="80" height="40" as="geometry" />
        </mxCell>
        <mxCell id="VgeGi53NFvHiz8YJyW3t-37" value="&lt;b&gt;Potencia&lt;/b&gt;" style="ellipse;whiteSpace=wrap;html=1;" vertex="1" parent="1">
          <mxGeometry x="760" y="440" width="80" height="40" as="geometry" />
        </mxCell>
        <mxCell id="VgeGi53NFvHiz8YJyW3t-38" value="&lt;b&gt;Tipo&lt;/b&gt;" style="ellipse;whiteSpace=wrap;html=1;" vertex="1" parent="1">
          <mxGeometry x="800" y="400" width="80" height="40" as="geometry" />
        </mxCell>
        <mxCell id="VgeGi53NFvHiz8YJyW3t-39" value="&lt;b&gt;Modelo&lt;/b&gt;" style="ellipse;whiteSpace=wrap;html=1;" vertex="1" parent="1">
          <mxGeometry x="800" y="360" width="80" height="40" as="geometry" />
        </mxCell>
        <mxCell id="VgeGi53NFvHiz8YJyW3t-42" value="" style="endArrow=none;html=1;rounded=0;exitX=1;exitY=0;exitDx=0;exitDy=0;entryX=0;entryY=1;entryDx=0;entryDy=0;" edge="1" parent="1" source="VgeGi53NFvHiz8YJyW3t-1" target="VgeGi53NFvHiz8YJyW3t-36">
          <mxGeometry width="50" height="50" relative="1" as="geometry">
            <mxPoint x="1070" y="300" as="sourcePoint" />
            <mxPoint x="1120" y="335" as="targetPoint" />
          </mxGeometry>
        </mxCell>
        <mxCell id="VgeGi53NFvHiz8YJyW3t-43" value="" style="endArrow=none;html=1;rounded=0;exitX=1;exitY=0.25;exitDx=0;exitDy=0;entryX=0;entryY=0.5;entryDx=0;entryDy=0;" edge="1" parent="1" source="VgeGi53NFvHiz8YJyW3t-1" target="VgeGi53NFvHiz8YJyW3t-39">
          <mxGeometry width="50" height="50" relative="1" as="geometry">
            <mxPoint x="1100" y="370" as="sourcePoint" />
            <mxPoint x="1150" y="405" as="targetPoint" />
          </mxGeometry>
        </mxCell>
        <mxCell id="VgeGi53NFvHiz8YJyW3t-44" value="" style="endArrow=none;html=1;rounded=0;exitX=1;exitY=0.5;exitDx=0;exitDy=0;entryX=0;entryY=0.5;entryDx=0;entryDy=0;" edge="1" parent="1" source="VgeGi53NFvHiz8YJyW3t-1" target="VgeGi53NFvHiz8YJyW3t-38">
          <mxGeometry width="50" height="50" relative="1" as="geometry">
            <mxPoint x="1110" y="390" as="sourcePoint" />
            <mxPoint x="1160" y="425" as="targetPoint" />
          </mxGeometry>
        </mxCell>
        <mxCell id="VgeGi53NFvHiz8YJyW3t-45" value="" style="endArrow=none;html=1;rounded=0;exitX=1;exitY=0.75;exitDx=0;exitDy=0;entryX=0;entryY=0;entryDx=0;entryDy=0;" edge="1" parent="1" source="VgeGi53NFvHiz8YJyW3t-1" target="VgeGi53NFvHiz8YJyW3t-37">
          <mxGeometry width="50" height="50" relative="1" as="geometry">
            <mxPoint x="1120" y="430" as="sourcePoint" />
            <mxPoint x="1170" y="465" as="targetPoint" />
          </mxGeometry>
        </mxCell>
        <mxCell id="VgeGi53NFvHiz8YJyW3t-46" value="DISTRIBUYE" style="rhombus;whiteSpace=wrap;html=1;" vertex="1" parent="1">
          <mxGeometry x="410" y="230" width="80" height="80" as="geometry" />
        </mxCell>
        <mxCell id="VgeGi53NFvHiz8YJyW3t-58" value="CONDUCE" style="rhombus;whiteSpace=wrap;html=1;" vertex="1" parent="1">
          <mxGeometry x="620" y="230" width="80" height="80" as="geometry" />
        </mxCell>
        <mxCell id="VgeGi53NFvHiz8YJyW3t-60" value="" style="endArrow=none;html=1;rounded=0;exitX=0.5;exitY=0;exitDx=0;exitDy=0;entryX=0.5;entryY=1;entryDx=0;entryDy=0;" edge="1" parent="1" source="VgeGi53NFvHiz8YJyW3t-58" target="VgeGi53NFvHiz8YJyW3t-5">
          <mxGeometry width="50" height="50" relative="1" as="geometry">
            <mxPoint x="570" y="190" as="sourcePoint" />
            <mxPoint x="670" y="190" as="targetPoint" />
          </mxGeometry>
        </mxCell>
        <mxCell id="VgeGi53NFvHiz8YJyW3t-61" value="" style="endArrow=none;html=1;rounded=0;exitX=0.5;exitY=0;exitDx=0;exitDy=0;entryX=0.5;entryY=1;entryDx=0;entryDy=0;" edge="1" parent="1" source="VgeGi53NFvHiz8YJyW3t-1" target="VgeGi53NFvHiz8YJyW3t-58">
          <mxGeometry width="50" height="50" relative="1" as="geometry">
            <mxPoint x="650" y="340" as="sourcePoint" />
            <mxPoint x="750" y="340" as="targetPoint" />
          </mxGeometry>
        </mxCell>
        <mxCell id="VgeGi53NFvHiz8YJyW3t-64" value="" style="endArrow=none;html=1;rounded=0;exitX=1;exitY=0.5;exitDx=0;exitDy=0;entryX=0;entryY=0.5;entryDx=0;entryDy=0;" edge="1" parent="1" source="VgeGi53NFvHiz8YJyW3t-46" target="VgeGi53NFvHiz8YJyW3t-5">
          <mxGeometry width="50" height="50" relative="1" as="geometry">
            <mxPoint x="450" y="230" as="sourcePoint" />
            <mxPoint x="500" y="180" as="targetPoint" />
          </mxGeometry>
        </mxCell>
        <mxCell id="VgeGi53NFvHiz8YJyW3t-65" value="" style="endArrow=none;html=1;rounded=0;exitX=0;exitY=0.5;exitDx=0;exitDy=0;entryX=0.5;entryY=1;entryDx=0;entryDy=0;" edge="1" parent="1" source="VgeGi53NFvHiz8YJyW3t-46" target="VgeGi53NFvHiz8YJyW3t-3">
          <mxGeometry width="50" height="50" relative="1" as="geometry">
            <mxPoint x="390" y="315" as="sourcePoint" />
            <mxPoint x="520" y="210" as="targetPoint" />
          </mxGeometry>
        </mxCell>
        <mxCell id="VgeGi53NFvHiz8YJyW3t-66" value="" style="endArrow=none;html=1;rounded=0;exitX=1;exitY=0;exitDx=0;exitDy=0;entryX=0.5;entryY=1;entryDx=0;entryDy=0;" edge="1" parent="1" source="VgeGi53NFvHiz8YJyW3t-4" target="VgeGi53NFvHiz8YJyW3t-46">
          <mxGeometry width="50" height="50" relative="1" as="geometry">
            <mxPoint x="300" y="425" as="sourcePoint" />
            <mxPoint x="430" y="320" as="targetPoint" />
          </mxGeometry>
        </mxCell>
        <mxCell id="VgeGi53NFvHiz8YJyW3t-67" value="(1,n)" style="text;html=1;whiteSpace=wrap;strokeColor=none;fillColor=none;align=center;verticalAlign=middle;rounded=0;" vertex="1" parent="1">
          <mxGeometry x="310" y="175" width="60" height="30" as="geometry" />
        </mxCell>
        <mxCell id="VgeGi53NFvHiz8YJyW3t-69" value="(1,1)" style="text;html=1;whiteSpace=wrap;strokeColor=none;fillColor=none;align=center;verticalAlign=middle;rounded=0;" vertex="1" parent="1">
          <mxGeometry x="270" y="350" width="60" height="30" as="geometry" />
        </mxCell>
        <mxCell id="VgeGi53NFvHiz8YJyW3t-71" value="(1,1)" style="text;html=1;whiteSpace=wrap;strokeColor=none;fillColor=none;align=center;verticalAlign=middle;rounded=0;" vertex="1" parent="1">
          <mxGeometry x="600" y="175" width="60" height="30" as="geometry" />
        </mxCell>
        <mxCell id="VgeGi53NFvHiz8YJyW3t-72" value="CAMIONES" style="rounded=0;whiteSpace=wrap;html=1;" vertex="1" parent="1">
          <mxGeometry x="600" y="895" width="120" height="60" as="geometry" />
        </mxCell>
        <mxCell id="VgeGi53NFvHiz8YJyW3t-73" value="PAQUETES" style="rounded=0;whiteSpace=wrap;html=1;" vertex="1" parent="1">
          <mxGeometry x="210" y="630" width="120" height="60" as="geometry" />
        </mxCell>
        <mxCell id="VgeGi53NFvHiz8YJyW3t-74" value="PROVINCIAS" style="rounded=0;whiteSpace=wrap;html=1;" vertex="1" parent="1">
          <mxGeometry x="210" y="895" width="120" height="60" as="geometry" />
        </mxCell>
        <mxCell id="VgeGi53NFvHiz8YJyW3t-75" value="CAMIONERO" style="rounded=0;whiteSpace=wrap;html=1;" vertex="1" parent="1">
          <mxGeometry x="600" y="630" width="120" height="60" as="geometry" />
        </mxCell>
        <mxCell id="VgeGi53NFvHiz8YJyW3t-76" value="&lt;u&gt;DNI&lt;/u&gt;" style="ellipse;whiteSpace=wrap;html=1;" vertex="1" parent="1">
          <mxGeometry x="480" y="550" width="80" height="40" as="geometry" />
        </mxCell>
        <mxCell id="VgeGi53NFvHiz8YJyW3t-77" value="Nombre" style="ellipse;whiteSpace=wrap;html=1;" vertex="1" parent="1">
          <mxGeometry x="540" y="520" width="80" height="40" as="geometry" />
        </mxCell>
        <mxCell id="VgeGi53NFvHiz8YJyW3t-78" value="Tlf" style="ellipse;whiteSpace=wrap;html=1;" vertex="1" parent="1">
          <mxGeometry x="620" y="520" width="80" height="40" as="geometry" />
        </mxCell>
        <mxCell id="VgeGi53NFvHiz8YJyW3t-79" value="Dirección" style="ellipse;whiteSpace=wrap;html=1;" vertex="1" parent="1">
          <mxGeometry x="700" y="520" width="80" height="40" as="geometry" />
        </mxCell>
        <mxCell id="VgeGi53NFvHiz8YJyW3t-80" value="Población" style="ellipse;whiteSpace=wrap;html=1;" vertex="1" parent="1">
          <mxGeometry x="480" y="590" width="80" height="40" as="geometry" />
        </mxCell>
        <mxCell id="VgeGi53NFvHiz8YJyW3t-81" value="Salario" style="ellipse;whiteSpace=wrap;html=1;" vertex="1" parent="1">
          <mxGeometry x="760" y="550" width="80" height="40" as="geometry" />
        </mxCell>
        <mxCell id="VgeGi53NFvHiz8YJyW3t-82" value="" style="endArrow=none;html=1;rounded=0;exitX=0.5;exitY=0;exitDx=0;exitDy=0;entryX=0.5;entryY=1;entryDx=0;entryDy=0;" edge="1" parent="1" source="VgeGi53NFvHiz8YJyW3t-75" target="VgeGi53NFvHiz8YJyW3t-78">
          <mxGeometry width="50" height="50" relative="1" as="geometry">
            <mxPoint x="630" y="630" as="sourcePoint" />
            <mxPoint x="680" y="580" as="targetPoint" />
          </mxGeometry>
        </mxCell>
        <mxCell id="VgeGi53NFvHiz8YJyW3t-83" value="" style="endArrow=none;html=1;rounded=0;exitX=1;exitY=0.5;exitDx=0;exitDy=0;entryX=0;entryY=0;entryDx=0;entryDy=0;" edge="1" parent="1" source="VgeGi53NFvHiz8YJyW3t-80" target="VgeGi53NFvHiz8YJyW3t-75">
          <mxGeometry width="50" height="50" relative="1" as="geometry">
            <mxPoint x="590" y="640" as="sourcePoint" />
            <mxPoint x="590" y="570" as="targetPoint" />
          </mxGeometry>
        </mxCell>
        <mxCell id="VgeGi53NFvHiz8YJyW3t-84" value="" style="endArrow=none;html=1;rounded=0;exitX=0.25;exitY=0;exitDx=0;exitDy=0;entryX=1;entryY=0.5;entryDx=0;entryDy=0;" edge="1" parent="1" source="VgeGi53NFvHiz8YJyW3t-75" target="VgeGi53NFvHiz8YJyW3t-76">
          <mxGeometry width="50" height="50" relative="1" as="geometry">
            <mxPoint x="610" y="660" as="sourcePoint" />
            <mxPoint x="610" y="590" as="targetPoint" />
          </mxGeometry>
        </mxCell>
        <mxCell id="VgeGi53NFvHiz8YJyW3t-85" value="" style="endArrow=none;html=1;rounded=0;exitX=0.25;exitY=0;exitDx=0;exitDy=0;entryX=0.5;entryY=1;entryDx=0;entryDy=0;" edge="1" parent="1" source="VgeGi53NFvHiz8YJyW3t-75" target="VgeGi53NFvHiz8YJyW3t-77">
          <mxGeometry width="50" height="50" relative="1" as="geometry">
            <mxPoint x="620" y="650" as="sourcePoint" />
            <mxPoint x="620" y="580" as="targetPoint" />
          </mxGeometry>
        </mxCell>
        <mxCell id="VgeGi53NFvHiz8YJyW3t-86" value="" style="endArrow=none;html=1;rounded=0;exitX=0.75;exitY=0;exitDx=0;exitDy=0;entryX=0.5;entryY=1;entryDx=0;entryDy=0;" edge="1" parent="1" source="VgeGi53NFvHiz8YJyW3t-75" target="VgeGi53NFvHiz8YJyW3t-79">
          <mxGeometry width="50" height="50" relative="1" as="geometry">
            <mxPoint x="730" y="670" as="sourcePoint" />
            <mxPoint x="730" y="600" as="targetPoint" />
          </mxGeometry>
        </mxCell>
        <mxCell id="VgeGi53NFvHiz8YJyW3t-87" value="" style="endArrow=none;html=1;rounded=0;exitX=0;exitY=1;exitDx=0;exitDy=0;entryX=1;entryY=0;entryDx=0;entryDy=0;" edge="1" parent="1" source="VgeGi53NFvHiz8YJyW3t-81" target="VgeGi53NFvHiz8YJyW3t-75">
          <mxGeometry width="50" height="50" relative="1" as="geometry">
            <mxPoint x="760" y="680" as="sourcePoint" />
            <mxPoint x="760" y="610" as="targetPoint" />
          </mxGeometry>
        </mxCell>
        <mxCell id="VgeGi53NFvHiz8YJyW3t-88" value="&lt;b&gt;&lt;u&gt;Id_Paquete&lt;/u&gt;&lt;/b&gt;" style="ellipse;whiteSpace=wrap;html=1;" vertex="1" parent="1">
          <mxGeometry x="130" y="550" width="80" height="40" as="geometry" />
        </mxCell>
        <mxCell id="VgeGi53NFvHiz8YJyW3t-89" value="Descripción" style="ellipse;whiteSpace=wrap;html=1;" vertex="1" parent="1">
          <mxGeometry x="190" y="520" width="80" height="40" as="geometry" />
        </mxCell>
        <mxCell id="VgeGi53NFvHiz8YJyW3t-90" value="Dirección_Destinatario" style="ellipse;whiteSpace=wrap;html=1;" vertex="1" parent="1">
          <mxGeometry x="330" y="550" width="80" height="40" as="geometry" />
        </mxCell>
        <mxCell id="VgeGi53NFvHiz8YJyW3t-91" value="Destinatario" style="ellipse;whiteSpace=wrap;html=1;" vertex="1" parent="1">
          <mxGeometry x="270" y="520" width="80" height="40" as="geometry" />
        </mxCell>
        <mxCell id="VgeGi53NFvHiz8YJyW3t-92" value="" style="endArrow=none;html=1;rounded=0;exitX=0.5;exitY=1;exitDx=0;exitDy=0;entryX=0;entryY=0;entryDx=0;entryDy=0;" edge="1" parent="1" source="VgeGi53NFvHiz8YJyW3t-88" target="VgeGi53NFvHiz8YJyW3t-73">
          <mxGeometry width="50" height="50" relative="1" as="geometry">
            <mxPoint x="270" y="640" as="sourcePoint" />
            <mxPoint x="320" y="590" as="targetPoint" />
          </mxGeometry>
        </mxCell>
        <mxCell id="VgeGi53NFvHiz8YJyW3t-93" value="" style="endArrow=none;html=1;rounded=0;exitX=0.5;exitY=1;exitDx=0;exitDy=0;entryX=0.25;entryY=0;entryDx=0;entryDy=0;" edge="1" parent="1" source="VgeGi53NFvHiz8YJyW3t-89" target="VgeGi53NFvHiz8YJyW3t-73">
          <mxGeometry width="50" height="50" relative="1" as="geometry">
            <mxPoint x="250" y="600" as="sourcePoint" />
            <mxPoint x="290" y="640" as="targetPoint" />
          </mxGeometry>
        </mxCell>
        <mxCell id="VgeGi53NFvHiz8YJyW3t-94" value="" style="endArrow=none;html=1;rounded=0;exitX=0.377;exitY=1.046;exitDx=0;exitDy=0;entryX=0.5;entryY=0;entryDx=0;entryDy=0;exitPerimeter=0;" edge="1" parent="1" source="VgeGi53NFvHiz8YJyW3t-91" target="VgeGi53NFvHiz8YJyW3t-73">
          <mxGeometry width="50" height="50" relative="1" as="geometry">
            <mxPoint x="290" y="600" as="sourcePoint" />
            <mxPoint x="330" y="640" as="targetPoint" />
          </mxGeometry>
        </mxCell>
        <mxCell id="VgeGi53NFvHiz8YJyW3t-95" value="" style="endArrow=none;html=1;rounded=0;exitX=0;exitY=1;exitDx=0;exitDy=0;entryX=0.75;entryY=0;entryDx=0;entryDy=0;" edge="1" parent="1" source="VgeGi53NFvHiz8YJyW3t-90" target="VgeGi53NFvHiz8YJyW3t-73">
          <mxGeometry width="50" height="50" relative="1" as="geometry">
            <mxPoint x="340" y="590" as="sourcePoint" />
            <mxPoint x="380" y="630" as="targetPoint" />
          </mxGeometry>
        </mxCell>
        <mxCell id="VgeGi53NFvHiz8YJyW3t-96" value="&lt;u&gt;Cod_Provincia&lt;/u&gt;" style="ellipse;whiteSpace=wrap;html=1;" vertex="1" parent="1">
          <mxGeometry x="90" y="885" width="80" height="40" as="geometry" />
        </mxCell>
        <mxCell id="VgeGi53NFvHiz8YJyW3t-97" value="&lt;b&gt;Nombre&lt;/b&gt;" style="ellipse;whiteSpace=wrap;html=1;" vertex="1" parent="1">
          <mxGeometry x="90" y="925" width="80" height="40" as="geometry" />
        </mxCell>
        <mxCell id="VgeGi53NFvHiz8YJyW3t-98" value="" style="endArrow=none;html=1;rounded=0;exitX=1;exitY=0.5;exitDx=0;exitDy=0;entryX=0;entryY=0.25;entryDx=0;entryDy=0;" edge="1" parent="1" source="VgeGi53NFvHiz8YJyW3t-96" target="VgeGi53NFvHiz8YJyW3t-74">
          <mxGeometry width="50" height="50" relative="1" as="geometry">
            <mxPoint x="170" y="855" as="sourcePoint" />
            <mxPoint x="210" y="875" as="targetPoint" />
          </mxGeometry>
        </mxCell>
        <mxCell id="VgeGi53NFvHiz8YJyW3t-99" value="" style="endArrow=none;html=1;rounded=0;exitX=1;exitY=0.5;exitDx=0;exitDy=0;entryX=0;entryY=0.75;entryDx=0;entryDy=0;" edge="1" parent="1" source="VgeGi53NFvHiz8YJyW3t-97" target="VgeGi53NFvHiz8YJyW3t-74">
          <mxGeometry width="50" height="50" relative="1" as="geometry">
            <mxPoint x="150" y="975" as="sourcePoint" />
            <mxPoint x="190" y="995" as="targetPoint" />
          </mxGeometry>
        </mxCell>
        <mxCell id="VgeGi53NFvHiz8YJyW3t-100" value="&lt;b&gt;&lt;u&gt;Matrícula&lt;/u&gt;&lt;/b&gt;" style="ellipse;whiteSpace=wrap;html=1;" vertex="1" parent="1">
          <mxGeometry x="760" y="835" width="80" height="40" as="geometry" />
        </mxCell>
        <mxCell id="VgeGi53NFvHiz8YJyW3t-101" value="&lt;b&gt;Potencia&lt;/b&gt;" style="ellipse;whiteSpace=wrap;html=1;" vertex="1" parent="1">
          <mxGeometry x="760" y="955" width="80" height="40" as="geometry" />
        </mxCell>
        <mxCell id="VgeGi53NFvHiz8YJyW3t-102" value="&lt;b&gt;Tipo&lt;/b&gt;" style="ellipse;whiteSpace=wrap;html=1;" vertex="1" parent="1">
          <mxGeometry x="800" y="915" width="80" height="40" as="geometry" />
        </mxCell>
        <mxCell id="VgeGi53NFvHiz8YJyW3t-103" value="&lt;b&gt;Modelo&lt;/b&gt;" style="ellipse;whiteSpace=wrap;html=1;" vertex="1" parent="1">
          <mxGeometry x="800" y="875" width="80" height="40" as="geometry" />
        </mxCell>
        <mxCell id="VgeGi53NFvHiz8YJyW3t-104" value="" style="endArrow=none;html=1;rounded=0;exitX=1;exitY=0;exitDx=0;exitDy=0;entryX=0;entryY=1;entryDx=0;entryDy=0;" edge="1" parent="1" source="VgeGi53NFvHiz8YJyW3t-72" target="VgeGi53NFvHiz8YJyW3t-100">
          <mxGeometry width="50" height="50" relative="1" as="geometry">
            <mxPoint x="1070" y="815" as="sourcePoint" />
            <mxPoint x="1120" y="850" as="targetPoint" />
          </mxGeometry>
        </mxCell>
        <mxCell id="VgeGi53NFvHiz8YJyW3t-105" value="" style="endArrow=none;html=1;rounded=0;exitX=1;exitY=0.25;exitDx=0;exitDy=0;entryX=0;entryY=0.5;entryDx=0;entryDy=0;" edge="1" parent="1" source="VgeGi53NFvHiz8YJyW3t-72" target="VgeGi53NFvHiz8YJyW3t-103">
          <mxGeometry width="50" height="50" relative="1" as="geometry">
            <mxPoint x="1100" y="885" as="sourcePoint" />
            <mxPoint x="1150" y="920" as="targetPoint" />
          </mxGeometry>
        </mxCell>
        <mxCell id="VgeGi53NFvHiz8YJyW3t-106" value="" style="endArrow=none;html=1;rounded=0;exitX=1;exitY=0.5;exitDx=0;exitDy=0;entryX=0;entryY=0.5;entryDx=0;entryDy=0;" edge="1" parent="1" source="VgeGi53NFvHiz8YJyW3t-72" target="VgeGi53NFvHiz8YJyW3t-102">
          <mxGeometry width="50" height="50" relative="1" as="geometry">
            <mxPoint x="1110" y="905" as="sourcePoint" />
            <mxPoint x="1160" y="940" as="targetPoint" />
          </mxGeometry>
        </mxCell>
        <mxCell id="VgeGi53NFvHiz8YJyW3t-107" value="" style="endArrow=none;html=1;rounded=0;exitX=1;exitY=0.75;exitDx=0;exitDy=0;entryX=0;entryY=0;entryDx=0;entryDy=0;" edge="1" parent="1" source="VgeGi53NFvHiz8YJyW3t-72" target="VgeGi53NFvHiz8YJyW3t-101">
          <mxGeometry width="50" height="50" relative="1" as="geometry">
            <mxPoint x="1120" y="945" as="sourcePoint" />
            <mxPoint x="1170" y="980" as="targetPoint" />
          </mxGeometry>
        </mxCell>
        <mxCell id="VgeGi53NFvHiz8YJyW3t-108" value="DISTRIBUYE" style="rhombus;whiteSpace=wrap;html=1;" vertex="1" parent="1">
          <mxGeometry x="414" y="620" width="80" height="80" as="geometry" />
        </mxCell>
        <mxCell id="VgeGi53NFvHiz8YJyW3t-109" value="CONDUCE" style="rhombus;whiteSpace=wrap;html=1;" vertex="1" parent="1">
          <mxGeometry x="620" y="745" width="80" height="80" as="geometry" />
        </mxCell>
        <mxCell id="VgeGi53NFvHiz8YJyW3t-110" value="" style="endArrow=none;html=1;rounded=0;exitX=0.5;exitY=0;exitDx=0;exitDy=0;entryX=0.5;entryY=1;entryDx=0;entryDy=0;" edge="1" parent="1" source="VgeGi53NFvHiz8YJyW3t-109" target="VgeGi53NFvHiz8YJyW3t-75">
          <mxGeometry width="50" height="50" relative="1" as="geometry">
            <mxPoint x="570" y="705" as="sourcePoint" />
            <mxPoint x="670" y="705" as="targetPoint" />
          </mxGeometry>
        </mxCell>
        <mxCell id="VgeGi53NFvHiz8YJyW3t-111" value="" style="endArrow=none;html=1;rounded=0;exitX=0.5;exitY=0;exitDx=0;exitDy=0;entryX=0.5;entryY=1;entryDx=0;entryDy=0;" edge="1" parent="1" source="VgeGi53NFvHiz8YJyW3t-72" target="VgeGi53NFvHiz8YJyW3t-109">
          <mxGeometry width="50" height="50" relative="1" as="geometry">
            <mxPoint x="650" y="855" as="sourcePoint" />
            <mxPoint x="750" y="855" as="targetPoint" />
          </mxGeometry>
        </mxCell>
        <mxCell id="VgeGi53NFvHiz8YJyW3t-117" value="(1,n)" style="text;html=1;whiteSpace=wrap;strokeColor=none;fillColor=none;align=center;verticalAlign=middle;rounded=0;" vertex="1" parent="1">
          <mxGeometry x="600" y="690" width="60" height="30" as="geometry" />
        </mxCell>
        <mxCell id="VgeGi53NFvHiz8YJyW3t-119" value="" style="endArrow=none;html=1;rounded=0;exitX=0;exitY=0.5;exitDx=0;exitDy=0;entryX=1;entryY=0.5;entryDx=0;entryDy=0;" edge="1" parent="1" source="VgeGi53NFvHiz8YJyW3t-75" target="VgeGi53NFvHiz8YJyW3t-108">
          <mxGeometry width="50" height="50" relative="1" as="geometry">
            <mxPoint x="520" y="715" as="sourcePoint" />
            <mxPoint x="520" y="660" as="targetPoint" />
          </mxGeometry>
        </mxCell>
        <mxCell id="VgeGi53NFvHiz8YJyW3t-120" value="" style="endArrow=none;html=1;rounded=0;entryX=1;entryY=0.5;entryDx=0;entryDy=0;" edge="1" parent="1" target="VgeGi53NFvHiz8YJyW3t-73">
          <mxGeometry width="50" height="50" relative="1" as="geometry">
            <mxPoint x="410" y="660" as="sourcePoint" />
            <mxPoint x="360" y="660" as="targetPoint" />
          </mxGeometry>
        </mxCell>
        <mxCell id="VgeGi53NFvHiz8YJyW3t-121" value="DISTRIBUIDO" style="rhombus;whiteSpace=wrap;html=1;" vertex="1" parent="1">
          <mxGeometry x="230" y="745" width="80" height="80" as="geometry" />
        </mxCell>
        <mxCell id="VgeGi53NFvHiz8YJyW3t-122" value="" style="endArrow=none;html=1;rounded=0;entryX=0.5;entryY=0;entryDx=0;entryDy=0;exitX=0.5;exitY=1;exitDx=0;exitDy=0;" edge="1" parent="1" source="VgeGi53NFvHiz8YJyW3t-73" target="VgeGi53NFvHiz8YJyW3t-121">
          <mxGeometry width="50" height="50" relative="1" as="geometry">
            <mxPoint x="310" y="720" as="sourcePoint" />
            <mxPoint x="230" y="720" as="targetPoint" />
          </mxGeometry>
        </mxCell>
        <mxCell id="VgeGi53NFvHiz8YJyW3t-123" value="" style="endArrow=none;html=1;rounded=0;entryX=0.5;entryY=0;entryDx=0;entryDy=0;exitX=0.5;exitY=1;exitDx=0;exitDy=0;" edge="1" parent="1" source="VgeGi53NFvHiz8YJyW3t-121" target="VgeGi53NFvHiz8YJyW3t-74">
          <mxGeometry width="50" height="50" relative="1" as="geometry">
            <mxPoint x="370" y="860" as="sourcePoint" />
            <mxPoint x="290" y="860" as="targetPoint" />
          </mxGeometry>
        </mxCell>
        <mxCell id="VgeGi53NFvHiz8YJyW3t-124" value="(1,n)" style="text;html=1;whiteSpace=wrap;strokeColor=none;fillColor=none;align=center;verticalAlign=middle;rounded=0;" vertex="1" parent="1">
          <mxGeometry x="600" y="865" width="60" height="30" as="geometry" />
        </mxCell>
        <mxCell id="VgeGi53NFvHiz8YJyW3t-125" value="(1,n)" style="text;html=1;whiteSpace=wrap;strokeColor=none;fillColor=none;align=center;verticalAlign=middle;rounded=0;" vertex="1" parent="1">
          <mxGeometry x="330" y="660" width="60" height="30" as="geometry" />
        </mxCell>
        <mxCell id="VgeGi53NFvHiz8YJyW3t-126" value="(1,1)" style="text;html=1;whiteSpace=wrap;strokeColor=none;fillColor=none;align=center;verticalAlign=middle;rounded=0;" vertex="1" parent="1">
          <mxGeometry x="540" y="660" width="60" height="30" as="geometry" />
        </mxCell>
        <mxCell id="VgeGi53NFvHiz8YJyW3t-127" value="(1,n)" style="text;html=1;whiteSpace=wrap;strokeColor=none;fillColor=none;align=center;verticalAlign=middle;rounded=0;" vertex="1" parent="1">
          <mxGeometry x="270" y="690" width="60" height="30" as="geometry" />
        </mxCell>
        <mxCell id="VgeGi53NFvHiz8YJyW3t-128" value="(1,1)" style="text;html=1;whiteSpace=wrap;strokeColor=none;fillColor=none;align=center;verticalAlign=middle;rounded=0;" vertex="1" parent="1">
          <mxGeometry x="270" y="865" width="60" height="30" as="geometry" />
        </mxCell>
        <mxCell id="VgeGi53NFvHiz8YJyW3t-129" value="1:M" style="text;html=1;whiteSpace=wrap;strokeColor=none;fillColor=none;align=center;verticalAlign=middle;rounded=0;" vertex="1" parent="1">
          <mxGeometry x="424" y="700" width="60" height="30" as="geometry" />
        </mxCell>
        <mxCell id="VgeGi53NFvHiz8YJyW3t-130" value="N:M" style="text;html=1;whiteSpace=wrap;strokeColor=none;fillColor=none;align=center;verticalAlign=middle;rounded=0;" vertex="1" parent="1">
          <mxGeometry x="560" y="770" width="60" height="30" as="geometry" />
        </mxCell>
        <mxCell id="VgeGi53NFvHiz8YJyW3t-131" value="1:M" style="text;html=1;whiteSpace=wrap;strokeColor=none;fillColor=none;align=center;verticalAlign=middle;rounded=0;" vertex="1" parent="1">
          <mxGeometry x="300" y="770" width="60" height="30" as="geometry" />
        </mxCell>
        <mxCell id="VgeGi53NFvHiz8YJyW3t-132" value="PAQUETES" style="shape=table;startSize=30;container=1;collapsible=1;childLayout=tableLayout;fixedRows=1;rowLines=0;fontStyle=1;align=center;resizeLast=1;html=1;" vertex="1" parent="1">
          <mxGeometry x="1210" y="615" width="180" height="210" as="geometry" />
        </mxCell>
        <mxCell id="VgeGi53NFvHiz8YJyW3t-133" value="" style="shape=tableRow;horizontal=0;startSize=0;swimlaneHead=0;swimlaneBody=0;fillColor=none;collapsible=0;dropTarget=0;points=[[0,0.5],[1,0.5]];portConstraint=eastwest;top=0;left=0;right=0;bottom=1;" vertex="1" parent="VgeGi53NFvHiz8YJyW3t-132">
          <mxGeometry y="30" width="180" height="30" as="geometry" />
        </mxCell>
        <mxCell id="VgeGi53NFvHiz8YJyW3t-134" value="PK" style="shape=partialRectangle;connectable=0;fillColor=none;top=0;left=0;bottom=0;right=0;fontStyle=1;overflow=hidden;whiteSpace=wrap;html=1;" vertex="1" parent="VgeGi53NFvHiz8YJyW3t-133">
          <mxGeometry width="40.000000000000455" height="30" as="geometry">
            <mxRectangle width="40.000000000000455" height="30" as="alternateBounds" />
          </mxGeometry>
        </mxCell>
        <mxCell id="VgeGi53NFvHiz8YJyW3t-135" value="Código_Paquete" style="shape=partialRectangle;connectable=0;fillColor=none;top=0;left=0;bottom=0;right=0;align=left;spacingLeft=6;fontStyle=5;overflow=hidden;whiteSpace=wrap;html=1;" vertex="1" parent="VgeGi53NFvHiz8YJyW3t-133">
          <mxGeometry x="40.000000000000455" width="139.99999999999955" height="30" as="geometry">
            <mxRectangle width="139.99999999999955" height="30" as="alternateBounds" />
          </mxGeometry>
        </mxCell>
        <mxCell id="VgeGi53NFvHiz8YJyW3t-136" value="" style="shape=tableRow;horizontal=0;startSize=0;swimlaneHead=0;swimlaneBody=0;fillColor=none;collapsible=0;dropTarget=0;points=[[0,0.5],[1,0.5]];portConstraint=eastwest;top=0;left=0;right=0;bottom=0;" vertex="1" parent="VgeGi53NFvHiz8YJyW3t-132">
          <mxGeometry y="60" width="180" height="30" as="geometry" />
        </mxCell>
        <mxCell id="VgeGi53NFvHiz8YJyW3t-137" value="FK" style="shape=partialRectangle;connectable=0;fillColor=none;top=0;left=0;bottom=0;right=0;editable=1;overflow=hidden;whiteSpace=wrap;html=1;" vertex="1" parent="VgeGi53NFvHiz8YJyW3t-136">
          <mxGeometry width="40.000000000000455" height="30" as="geometry">
            <mxRectangle width="40.000000000000455" height="30" as="alternateBounds" />
          </mxGeometry>
        </mxCell>
        <mxCell id="VgeGi53NFvHiz8YJyW3t-138" value="&lt;i style=&quot;&quot;&gt;&lt;u style=&quot;&quot;&gt;&lt;b&gt;Cod_Provincia&lt;/b&gt;&lt;/u&gt;&lt;/i&gt;" style="shape=partialRectangle;connectable=0;fillColor=none;top=0;left=0;bottom=0;right=0;align=left;spacingLeft=6;overflow=hidden;whiteSpace=wrap;html=1;" vertex="1" parent="VgeGi53NFvHiz8YJyW3t-136">
          <mxGeometry x="40.000000000000455" width="139.99999999999955" height="30" as="geometry">
            <mxRectangle width="139.99999999999955" height="30" as="alternateBounds" />
          </mxGeometry>
        </mxCell>
        <mxCell id="VgeGi53NFvHiz8YJyW3t-139" value="" style="shape=tableRow;horizontal=0;startSize=0;swimlaneHead=0;swimlaneBody=0;fillColor=none;collapsible=0;dropTarget=0;points=[[0,0.5],[1,0.5]];portConstraint=eastwest;top=0;left=0;right=0;bottom=0;" vertex="1" parent="VgeGi53NFvHiz8YJyW3t-132">
          <mxGeometry y="90" width="180" height="30" as="geometry" />
        </mxCell>
        <mxCell id="VgeGi53NFvHiz8YJyW3t-140" value="FK" style="shape=partialRectangle;connectable=0;fillColor=none;top=0;left=0;bottom=0;right=0;editable=1;overflow=hidden;whiteSpace=wrap;html=1;" vertex="1" parent="VgeGi53NFvHiz8YJyW3t-139">
          <mxGeometry width="40.000000000000455" height="30" as="geometry">
            <mxRectangle width="40.000000000000455" height="30" as="alternateBounds" />
          </mxGeometry>
        </mxCell>
        <mxCell id="VgeGi53NFvHiz8YJyW3t-141" value="&lt;u&gt;&lt;i&gt;DNI&lt;/i&gt;&lt;/u&gt;" style="shape=partialRectangle;connectable=0;fillColor=none;top=0;left=0;bottom=0;right=0;align=left;spacingLeft=6;overflow=hidden;whiteSpace=wrap;html=1;" vertex="1" parent="VgeGi53NFvHiz8YJyW3t-139">
          <mxGeometry x="40.000000000000455" width="139.99999999999955" height="30" as="geometry">
            <mxRectangle width="139.99999999999955" height="30" as="alternateBounds" />
          </mxGeometry>
        </mxCell>
        <mxCell id="VgeGi53NFvHiz8YJyW3t-142" value="" style="shape=tableRow;horizontal=0;startSize=0;swimlaneHead=0;swimlaneBody=0;fillColor=none;collapsible=0;dropTarget=0;points=[[0,0.5],[1,0.5]];portConstraint=eastwest;top=0;left=0;right=0;bottom=0;" vertex="1" parent="VgeGi53NFvHiz8YJyW3t-132">
          <mxGeometry y="120" width="180" height="30" as="geometry" />
        </mxCell>
        <mxCell id="VgeGi53NFvHiz8YJyW3t-143" value="" style="shape=partialRectangle;connectable=0;fillColor=none;top=0;left=0;bottom=0;right=0;editable=1;overflow=hidden;whiteSpace=wrap;html=1;" vertex="1" parent="VgeGi53NFvHiz8YJyW3t-142">
          <mxGeometry width="40.000000000000455" height="30" as="geometry">
            <mxRectangle width="40.000000000000455" height="30" as="alternateBounds" />
          </mxGeometry>
        </mxCell>
        <mxCell id="VgeGi53NFvHiz8YJyW3t-144" value="Descripción" style="shape=partialRectangle;connectable=0;fillColor=none;top=0;left=0;bottom=0;right=0;align=left;spacingLeft=6;overflow=hidden;whiteSpace=wrap;html=1;" vertex="1" parent="VgeGi53NFvHiz8YJyW3t-142">
          <mxGeometry x="40.000000000000455" width="139.99999999999955" height="30" as="geometry">
            <mxRectangle width="139.99999999999955" height="30" as="alternateBounds" />
          </mxGeometry>
        </mxCell>
        <mxCell id="VgeGi53NFvHiz8YJyW3t-259" style="shape=tableRow;horizontal=0;startSize=0;swimlaneHead=0;swimlaneBody=0;fillColor=none;collapsible=0;dropTarget=0;points=[[0,0.5],[1,0.5]];portConstraint=eastwest;top=0;left=0;right=0;bottom=0;" vertex="1" parent="VgeGi53NFvHiz8YJyW3t-132">
          <mxGeometry y="150" width="180" height="30" as="geometry" />
        </mxCell>
        <mxCell id="VgeGi53NFvHiz8YJyW3t-260" style="shape=partialRectangle;connectable=0;fillColor=none;top=0;left=0;bottom=0;right=0;editable=1;overflow=hidden;whiteSpace=wrap;html=1;" vertex="1" parent="VgeGi53NFvHiz8YJyW3t-259">
          <mxGeometry width="40.000000000000455" height="30" as="geometry">
            <mxRectangle width="40.000000000000455" height="30" as="alternateBounds" />
          </mxGeometry>
        </mxCell>
        <mxCell id="VgeGi53NFvHiz8YJyW3t-261" value="Destinatario" style="shape=partialRectangle;connectable=0;fillColor=none;top=0;left=0;bottom=0;right=0;align=left;spacingLeft=6;overflow=hidden;whiteSpace=wrap;html=1;" vertex="1" parent="VgeGi53NFvHiz8YJyW3t-259">
          <mxGeometry x="40.000000000000455" width="139.99999999999955" height="30" as="geometry">
            <mxRectangle width="139.99999999999955" height="30" as="alternateBounds" />
          </mxGeometry>
        </mxCell>
        <mxCell id="VgeGi53NFvHiz8YJyW3t-272" style="shape=tableRow;horizontal=0;startSize=0;swimlaneHead=0;swimlaneBody=0;fillColor=none;collapsible=0;dropTarget=0;points=[[0,0.5],[1,0.5]];portConstraint=eastwest;top=0;left=0;right=0;bottom=0;" vertex="1" parent="VgeGi53NFvHiz8YJyW3t-132">
          <mxGeometry y="180" width="180" height="30" as="geometry" />
        </mxCell>
        <mxCell id="VgeGi53NFvHiz8YJyW3t-273" style="shape=partialRectangle;connectable=0;fillColor=none;top=0;left=0;bottom=0;right=0;editable=1;overflow=hidden;whiteSpace=wrap;html=1;" vertex="1" parent="VgeGi53NFvHiz8YJyW3t-272">
          <mxGeometry width="40.000000000000455" height="30" as="geometry">
            <mxRectangle width="40.000000000000455" height="30" as="alternateBounds" />
          </mxGeometry>
        </mxCell>
        <mxCell id="VgeGi53NFvHiz8YJyW3t-274" value="Dirección_Destinatario" style="shape=partialRectangle;connectable=0;fillColor=none;top=0;left=0;bottom=0;right=0;align=left;spacingLeft=6;overflow=hidden;whiteSpace=wrap;html=1;" vertex="1" parent="VgeGi53NFvHiz8YJyW3t-272">
          <mxGeometry x="40.000000000000455" width="139.99999999999955" height="30" as="geometry">
            <mxRectangle width="139.99999999999955" height="30" as="alternateBounds" />
          </mxGeometry>
        </mxCell>
        <mxCell id="VgeGi53NFvHiz8YJyW3t-145" value="CAMIONERO" style="shape=table;startSize=30;container=1;collapsible=1;childLayout=tableLayout;fixedRows=1;rowLines=0;fontStyle=1;align=center;resizeLast=1;html=1;" vertex="1" parent="1">
          <mxGeometry x="910" y="480" width="180" height="240.00000000000023" as="geometry" />
        </mxCell>
        <mxCell id="VgeGi53NFvHiz8YJyW3t-146" value="" style="shape=tableRow;horizontal=0;startSize=0;swimlaneHead=0;swimlaneBody=0;fillColor=none;collapsible=0;dropTarget=0;points=[[0,0.5],[1,0.5]];portConstraint=eastwest;top=0;left=0;right=0;bottom=1;" vertex="1" parent="VgeGi53NFvHiz8YJyW3t-145">
          <mxGeometry y="30" width="180" height="30" as="geometry" />
        </mxCell>
        <mxCell id="VgeGi53NFvHiz8YJyW3t-147" value="PK" style="shape=partialRectangle;connectable=0;fillColor=none;top=0;left=0;bottom=0;right=0;fontStyle=1;overflow=hidden;whiteSpace=wrap;html=1;" vertex="1" parent="VgeGi53NFvHiz8YJyW3t-146">
          <mxGeometry width="40.000000000000455" height="30" as="geometry">
            <mxRectangle width="40.000000000000455" height="30" as="alternateBounds" />
          </mxGeometry>
        </mxCell>
        <mxCell id="VgeGi53NFvHiz8YJyW3t-148" value="DNI" style="shape=partialRectangle;connectable=0;fillColor=none;top=0;left=0;bottom=0;right=0;align=left;spacingLeft=6;fontStyle=5;overflow=hidden;whiteSpace=wrap;html=1;" vertex="1" parent="VgeGi53NFvHiz8YJyW3t-146">
          <mxGeometry x="40.000000000000455" width="139.99999999999955" height="30" as="geometry">
            <mxRectangle width="139.99999999999955" height="30" as="alternateBounds" />
          </mxGeometry>
        </mxCell>
        <mxCell id="VgeGi53NFvHiz8YJyW3t-149" value="" style="shape=tableRow;horizontal=0;startSize=0;swimlaneHead=0;swimlaneBody=0;fillColor=none;collapsible=0;dropTarget=0;points=[[0,0.5],[1,0.5]];portConstraint=eastwest;top=0;left=0;right=0;bottom=0;" vertex="1" parent="VgeGi53NFvHiz8YJyW3t-145">
          <mxGeometry y="60" width="180" height="30" as="geometry" />
        </mxCell>
        <mxCell id="VgeGi53NFvHiz8YJyW3t-150" value="" style="shape=partialRectangle;connectable=0;fillColor=none;top=0;left=0;bottom=0;right=0;editable=1;overflow=hidden;whiteSpace=wrap;html=1;" vertex="1" parent="VgeGi53NFvHiz8YJyW3t-149">
          <mxGeometry width="40.000000000000455" height="30" as="geometry">
            <mxRectangle width="40.000000000000455" height="30" as="alternateBounds" />
          </mxGeometry>
        </mxCell>
        <mxCell id="VgeGi53NFvHiz8YJyW3t-151" value="Nombre" style="shape=partialRectangle;connectable=0;fillColor=none;top=0;left=0;bottom=0;right=0;align=left;spacingLeft=6;overflow=hidden;whiteSpace=wrap;html=1;" vertex="1" parent="VgeGi53NFvHiz8YJyW3t-149">
          <mxGeometry x="40.000000000000455" width="139.99999999999955" height="30" as="geometry">
            <mxRectangle width="139.99999999999955" height="30" as="alternateBounds" />
          </mxGeometry>
        </mxCell>
        <mxCell id="VgeGi53NFvHiz8YJyW3t-152" value="" style="shape=tableRow;horizontal=0;startSize=0;swimlaneHead=0;swimlaneBody=0;fillColor=none;collapsible=0;dropTarget=0;points=[[0,0.5],[1,0.5]];portConstraint=eastwest;top=0;left=0;right=0;bottom=0;" vertex="1" parent="VgeGi53NFvHiz8YJyW3t-145">
          <mxGeometry y="90" width="180" height="30" as="geometry" />
        </mxCell>
        <mxCell id="VgeGi53NFvHiz8YJyW3t-153" value="" style="shape=partialRectangle;connectable=0;fillColor=none;top=0;left=0;bottom=0;right=0;editable=1;overflow=hidden;whiteSpace=wrap;html=1;" vertex="1" parent="VgeGi53NFvHiz8YJyW3t-152">
          <mxGeometry width="40.000000000000455" height="30" as="geometry">
            <mxRectangle width="40.000000000000455" height="30" as="alternateBounds" />
          </mxGeometry>
        </mxCell>
        <mxCell id="VgeGi53NFvHiz8YJyW3t-154" value="Apellidos" style="shape=partialRectangle;connectable=0;fillColor=none;top=0;left=0;bottom=0;right=0;align=left;spacingLeft=6;overflow=hidden;whiteSpace=wrap;html=1;" vertex="1" parent="VgeGi53NFvHiz8YJyW3t-152">
          <mxGeometry x="40.000000000000455" width="139.99999999999955" height="30" as="geometry">
            <mxRectangle width="139.99999999999955" height="30" as="alternateBounds" />
          </mxGeometry>
        </mxCell>
        <mxCell id="VgeGi53NFvHiz8YJyW3t-155" value="" style="shape=tableRow;horizontal=0;startSize=0;swimlaneHead=0;swimlaneBody=0;fillColor=none;collapsible=0;dropTarget=0;points=[[0,0.5],[1,0.5]];portConstraint=eastwest;top=0;left=0;right=0;bottom=0;" vertex="1" parent="VgeGi53NFvHiz8YJyW3t-145">
          <mxGeometry y="120" width="180" height="30" as="geometry" />
        </mxCell>
        <mxCell id="VgeGi53NFvHiz8YJyW3t-156" value="" style="shape=partialRectangle;connectable=0;fillColor=none;top=0;left=0;bottom=0;right=0;editable=1;overflow=hidden;whiteSpace=wrap;html=1;" vertex="1" parent="VgeGi53NFvHiz8YJyW3t-155">
          <mxGeometry width="40.000000000000455" height="30" as="geometry">
            <mxRectangle width="40.000000000000455" height="30" as="alternateBounds" />
          </mxGeometry>
        </mxCell>
        <mxCell id="VgeGi53NFvHiz8YJyW3t-157" value="Población" style="shape=partialRectangle;connectable=0;fillColor=none;top=0;left=0;bottom=0;right=0;align=left;spacingLeft=6;overflow=hidden;whiteSpace=wrap;html=1;" vertex="1" parent="VgeGi53NFvHiz8YJyW3t-155">
          <mxGeometry x="40.000000000000455" width="139.99999999999955" height="30" as="geometry">
            <mxRectangle width="139.99999999999955" height="30" as="alternateBounds" />
          </mxGeometry>
        </mxCell>
        <mxCell id="VgeGi53NFvHiz8YJyW3t-158" style="shape=tableRow;horizontal=0;startSize=0;swimlaneHead=0;swimlaneBody=0;fillColor=none;collapsible=0;dropTarget=0;points=[[0,0.5],[1,0.5]];portConstraint=eastwest;top=0;left=0;right=0;bottom=0;" vertex="1" parent="VgeGi53NFvHiz8YJyW3t-145">
          <mxGeometry y="150" width="180" height="30" as="geometry" />
        </mxCell>
        <mxCell id="VgeGi53NFvHiz8YJyW3t-159" style="shape=partialRectangle;connectable=0;fillColor=none;top=0;left=0;bottom=0;right=0;editable=1;overflow=hidden;whiteSpace=wrap;html=1;" vertex="1" parent="VgeGi53NFvHiz8YJyW3t-158">
          <mxGeometry width="40.000000000000455" height="30" as="geometry">
            <mxRectangle width="40.000000000000455" height="30" as="alternateBounds" />
          </mxGeometry>
        </mxCell>
        <mxCell id="VgeGi53NFvHiz8YJyW3t-160" value="Tlf" style="shape=partialRectangle;connectable=0;fillColor=none;top=0;left=0;bottom=0;right=0;align=left;spacingLeft=6;overflow=hidden;whiteSpace=wrap;html=1;" vertex="1" parent="VgeGi53NFvHiz8YJyW3t-158">
          <mxGeometry x="40.000000000000455" width="139.99999999999955" height="30" as="geometry">
            <mxRectangle width="139.99999999999955" height="30" as="alternateBounds" />
          </mxGeometry>
        </mxCell>
        <mxCell id="VgeGi53NFvHiz8YJyW3t-161" style="shape=tableRow;horizontal=0;startSize=0;swimlaneHead=0;swimlaneBody=0;fillColor=none;collapsible=0;dropTarget=0;points=[[0,0.5],[1,0.5]];portConstraint=eastwest;top=0;left=0;right=0;bottom=0;" vertex="1" parent="VgeGi53NFvHiz8YJyW3t-145">
          <mxGeometry y="180" width="180" height="30" as="geometry" />
        </mxCell>
        <mxCell id="VgeGi53NFvHiz8YJyW3t-162" style="shape=partialRectangle;connectable=0;fillColor=none;top=0;left=0;bottom=0;right=0;editable=1;overflow=hidden;whiteSpace=wrap;html=1;" vertex="1" parent="VgeGi53NFvHiz8YJyW3t-161">
          <mxGeometry width="40.000000000000455" height="30" as="geometry">
            <mxRectangle width="40.000000000000455" height="30" as="alternateBounds" />
          </mxGeometry>
        </mxCell>
        <mxCell id="VgeGi53NFvHiz8YJyW3t-163" value="Dirección" style="shape=partialRectangle;connectable=0;fillColor=none;top=0;left=0;bottom=0;right=0;align=left;spacingLeft=6;overflow=hidden;whiteSpace=wrap;html=1;" vertex="1" parent="VgeGi53NFvHiz8YJyW3t-161">
          <mxGeometry x="40.000000000000455" width="139.99999999999955" height="30" as="geometry">
            <mxRectangle width="139.99999999999955" height="30" as="alternateBounds" />
          </mxGeometry>
        </mxCell>
        <mxCell id="VgeGi53NFvHiz8YJyW3t-164" style="shape=tableRow;horizontal=0;startSize=0;swimlaneHead=0;swimlaneBody=0;fillColor=none;collapsible=0;dropTarget=0;points=[[0,0.5],[1,0.5]];portConstraint=eastwest;top=0;left=0;right=0;bottom=0;" vertex="1" parent="VgeGi53NFvHiz8YJyW3t-145">
          <mxGeometry y="210" width="180" height="30" as="geometry" />
        </mxCell>
        <mxCell id="VgeGi53NFvHiz8YJyW3t-165" style="shape=partialRectangle;connectable=0;fillColor=none;top=0;left=0;bottom=0;right=0;editable=1;overflow=hidden;whiteSpace=wrap;html=1;" vertex="1" parent="VgeGi53NFvHiz8YJyW3t-164">
          <mxGeometry width="40.000000000000455" height="30" as="geometry">
            <mxRectangle width="40.000000000000455" height="30" as="alternateBounds" />
          </mxGeometry>
        </mxCell>
        <mxCell id="VgeGi53NFvHiz8YJyW3t-166" value="Salario" style="shape=partialRectangle;connectable=0;fillColor=none;top=0;left=0;bottom=0;right=0;align=left;spacingLeft=6;overflow=hidden;whiteSpace=wrap;html=1;" vertex="1" parent="VgeGi53NFvHiz8YJyW3t-164">
          <mxGeometry x="40.000000000000455" width="139.99999999999955" height="30" as="geometry">
            <mxRectangle width="139.99999999999955" height="30" as="alternateBounds" />
          </mxGeometry>
        </mxCell>
        <mxCell id="VgeGi53NFvHiz8YJyW3t-167" value="CAMIONES" style="shape=table;startSize=30;container=1;collapsible=1;childLayout=tableLayout;fixedRows=1;rowLines=0;fontStyle=1;align=center;resizeLast=1;html=1;" vertex="1" parent="1">
          <mxGeometry x="1500" y="480" width="180" height="150" as="geometry" />
        </mxCell>
        <mxCell id="VgeGi53NFvHiz8YJyW3t-168" value="" style="shape=tableRow;horizontal=0;startSize=0;swimlaneHead=0;swimlaneBody=0;fillColor=none;collapsible=0;dropTarget=0;points=[[0,0.5],[1,0.5]];portConstraint=eastwest;top=0;left=0;right=0;bottom=1;" vertex="1" parent="VgeGi53NFvHiz8YJyW3t-167">
          <mxGeometry y="30" width="180" height="30" as="geometry" />
        </mxCell>
        <mxCell id="VgeGi53NFvHiz8YJyW3t-169" value="PK" style="shape=partialRectangle;connectable=0;fillColor=none;top=0;left=0;bottom=0;right=0;fontStyle=1;overflow=hidden;whiteSpace=wrap;html=1;" vertex="1" parent="VgeGi53NFvHiz8YJyW3t-168">
          <mxGeometry width="30" height="30" as="geometry">
            <mxRectangle width="30" height="30" as="alternateBounds" />
          </mxGeometry>
        </mxCell>
        <mxCell id="VgeGi53NFvHiz8YJyW3t-170" value="Matrícula" style="shape=partialRectangle;connectable=0;fillColor=none;top=0;left=0;bottom=0;right=0;align=left;spacingLeft=6;fontStyle=5;overflow=hidden;whiteSpace=wrap;html=1;" vertex="1" parent="VgeGi53NFvHiz8YJyW3t-168">
          <mxGeometry x="30" width="150" height="30" as="geometry">
            <mxRectangle width="150" height="30" as="alternateBounds" />
          </mxGeometry>
        </mxCell>
        <mxCell id="VgeGi53NFvHiz8YJyW3t-171" value="" style="shape=tableRow;horizontal=0;startSize=0;swimlaneHead=0;swimlaneBody=0;fillColor=none;collapsible=0;dropTarget=0;points=[[0,0.5],[1,0.5]];portConstraint=eastwest;top=0;left=0;right=0;bottom=0;" vertex="1" parent="VgeGi53NFvHiz8YJyW3t-167">
          <mxGeometry y="60" width="180" height="30" as="geometry" />
        </mxCell>
        <mxCell id="VgeGi53NFvHiz8YJyW3t-172" value="" style="shape=partialRectangle;connectable=0;fillColor=none;top=0;left=0;bottom=0;right=0;editable=1;overflow=hidden;whiteSpace=wrap;html=1;" vertex="1" parent="VgeGi53NFvHiz8YJyW3t-171">
          <mxGeometry width="30" height="30" as="geometry">
            <mxRectangle width="30" height="30" as="alternateBounds" />
          </mxGeometry>
        </mxCell>
        <mxCell id="VgeGi53NFvHiz8YJyW3t-173" value="Modelo" style="shape=partialRectangle;connectable=0;fillColor=none;top=0;left=0;bottom=0;right=0;align=left;spacingLeft=6;overflow=hidden;whiteSpace=wrap;html=1;" vertex="1" parent="VgeGi53NFvHiz8YJyW3t-171">
          <mxGeometry x="30" width="150" height="30" as="geometry">
            <mxRectangle width="150" height="30" as="alternateBounds" />
          </mxGeometry>
        </mxCell>
        <mxCell id="VgeGi53NFvHiz8YJyW3t-174" value="" style="shape=tableRow;horizontal=0;startSize=0;swimlaneHead=0;swimlaneBody=0;fillColor=none;collapsible=0;dropTarget=0;points=[[0,0.5],[1,0.5]];portConstraint=eastwest;top=0;left=0;right=0;bottom=0;" vertex="1" parent="VgeGi53NFvHiz8YJyW3t-167">
          <mxGeometry y="90" width="180" height="30" as="geometry" />
        </mxCell>
        <mxCell id="VgeGi53NFvHiz8YJyW3t-175" value="" style="shape=partialRectangle;connectable=0;fillColor=none;top=0;left=0;bottom=0;right=0;editable=1;overflow=hidden;whiteSpace=wrap;html=1;" vertex="1" parent="VgeGi53NFvHiz8YJyW3t-174">
          <mxGeometry width="30" height="30" as="geometry">
            <mxRectangle width="30" height="30" as="alternateBounds" />
          </mxGeometry>
        </mxCell>
        <mxCell id="VgeGi53NFvHiz8YJyW3t-176" value="Tipo" style="shape=partialRectangle;connectable=0;fillColor=none;top=0;left=0;bottom=0;right=0;align=left;spacingLeft=6;overflow=hidden;whiteSpace=wrap;html=1;" vertex="1" parent="VgeGi53NFvHiz8YJyW3t-174">
          <mxGeometry x="30" width="150" height="30" as="geometry">
            <mxRectangle width="150" height="30" as="alternateBounds" />
          </mxGeometry>
        </mxCell>
        <mxCell id="VgeGi53NFvHiz8YJyW3t-177" value="" style="shape=tableRow;horizontal=0;startSize=0;swimlaneHead=0;swimlaneBody=0;fillColor=none;collapsible=0;dropTarget=0;points=[[0,0.5],[1,0.5]];portConstraint=eastwest;top=0;left=0;right=0;bottom=0;" vertex="1" parent="VgeGi53NFvHiz8YJyW3t-167">
          <mxGeometry y="120" width="180" height="30" as="geometry" />
        </mxCell>
        <mxCell id="VgeGi53NFvHiz8YJyW3t-178" value="" style="shape=partialRectangle;connectable=0;fillColor=none;top=0;left=0;bottom=0;right=0;editable=1;overflow=hidden;whiteSpace=wrap;html=1;" vertex="1" parent="VgeGi53NFvHiz8YJyW3t-177">
          <mxGeometry width="30" height="30" as="geometry">
            <mxRectangle width="30" height="30" as="alternateBounds" />
          </mxGeometry>
        </mxCell>
        <mxCell id="VgeGi53NFvHiz8YJyW3t-179" value="Potencia" style="shape=partialRectangle;connectable=0;fillColor=none;top=0;left=0;bottom=0;right=0;align=left;spacingLeft=6;overflow=hidden;whiteSpace=wrap;html=1;" vertex="1" parent="VgeGi53NFvHiz8YJyW3t-177">
          <mxGeometry x="30" width="150" height="30" as="geometry">
            <mxRectangle width="150" height="30" as="alternateBounds" />
          </mxGeometry>
        </mxCell>
        <mxCell id="VgeGi53NFvHiz8YJyW3t-222" value="Provincias" style="shape=table;startSize=30;container=1;collapsible=1;childLayout=tableLayout;fixedRows=1;rowLines=0;fontStyle=1;align=center;resizeLast=1;html=1;" vertex="1" parent="1">
          <mxGeometry x="1500" y="655" width="180" height="90" as="geometry" />
        </mxCell>
        <mxCell id="VgeGi53NFvHiz8YJyW3t-223" value="" style="shape=tableRow;horizontal=0;startSize=0;swimlaneHead=0;swimlaneBody=0;fillColor=none;collapsible=0;dropTarget=0;points=[[0,0.5],[1,0.5]];portConstraint=eastwest;top=0;left=0;right=0;bottom=1;" vertex="1" parent="VgeGi53NFvHiz8YJyW3t-222">
          <mxGeometry y="30" width="180" height="30" as="geometry" />
        </mxCell>
        <mxCell id="VgeGi53NFvHiz8YJyW3t-224" value="PK" style="shape=partialRectangle;connectable=0;fillColor=none;top=0;left=0;bottom=0;right=0;fontStyle=1;overflow=hidden;whiteSpace=wrap;html=1;" vertex="1" parent="VgeGi53NFvHiz8YJyW3t-223">
          <mxGeometry width="40.000000000000455" height="30" as="geometry">
            <mxRectangle width="40.000000000000455" height="30" as="alternateBounds" />
          </mxGeometry>
        </mxCell>
        <mxCell id="VgeGi53NFvHiz8YJyW3t-225" value="Cod_Provincia" style="shape=partialRectangle;connectable=0;fillColor=none;top=0;left=0;bottom=0;right=0;align=left;spacingLeft=6;fontStyle=5;overflow=hidden;whiteSpace=wrap;html=1;" vertex="1" parent="VgeGi53NFvHiz8YJyW3t-223">
          <mxGeometry x="40.000000000000455" width="139.99999999999955" height="30" as="geometry">
            <mxRectangle width="139.99999999999955" height="30" as="alternateBounds" />
          </mxGeometry>
        </mxCell>
        <mxCell id="VgeGi53NFvHiz8YJyW3t-226" value="" style="shape=tableRow;horizontal=0;startSize=0;swimlaneHead=0;swimlaneBody=0;fillColor=none;collapsible=0;dropTarget=0;points=[[0,0.5],[1,0.5]];portConstraint=eastwest;top=0;left=0;right=0;bottom=0;" vertex="1" parent="VgeGi53NFvHiz8YJyW3t-222">
          <mxGeometry y="60" width="180" height="30" as="geometry" />
        </mxCell>
        <mxCell id="VgeGi53NFvHiz8YJyW3t-227" value="" style="shape=partialRectangle;connectable=0;fillColor=none;top=0;left=0;bottom=0;right=0;editable=1;overflow=hidden;whiteSpace=wrap;html=1;" vertex="1" parent="VgeGi53NFvHiz8YJyW3t-226">
          <mxGeometry width="40.000000000000455" height="30" as="geometry">
            <mxRectangle width="40.000000000000455" height="30" as="alternateBounds" />
          </mxGeometry>
        </mxCell>
        <mxCell id="VgeGi53NFvHiz8YJyW3t-228" value="Nombre" style="shape=partialRectangle;connectable=0;fillColor=none;top=0;left=0;bottom=0;right=0;align=left;spacingLeft=6;overflow=hidden;whiteSpace=wrap;html=1;" vertex="1" parent="VgeGi53NFvHiz8YJyW3t-226">
          <mxGeometry x="40.000000000000455" width="139.99999999999955" height="30" as="geometry">
            <mxRectangle width="139.99999999999955" height="30" as="alternateBounds" />
          </mxGeometry>
        </mxCell>
        <mxCell id="VgeGi53NFvHiz8YJyW3t-238" value="DISTRIBUYE&lt;div&gt;POR&lt;/div&gt;" style="rhombus;whiteSpace=wrap;html=1;" vertex="1" parent="1">
          <mxGeometry x="414" y="755" width="80" height="80" as="geometry" />
        </mxCell>
        <mxCell id="VgeGi53NFvHiz8YJyW3t-239" value="" style="endArrow=none;html=1;rounded=0;exitX=0;exitY=0;exitDx=0;exitDy=0;entryX=1;entryY=0.5;entryDx=0;entryDy=0;" edge="1" parent="1" source="VgeGi53NFvHiz8YJyW3t-117" target="VgeGi53NFvHiz8YJyW3t-238">
          <mxGeometry width="50" height="50" relative="1" as="geometry">
            <mxPoint x="616" y="750" as="sourcePoint" />
            <mxPoint x="510" y="750" as="targetPoint" />
          </mxGeometry>
        </mxCell>
        <mxCell id="VgeGi53NFvHiz8YJyW3t-240" value="" style="endArrow=none;html=1;rounded=0;exitX=0;exitY=0.5;exitDx=0;exitDy=0;entryX=1;entryY=1;entryDx=0;entryDy=0;" edge="1" parent="1" source="VgeGi53NFvHiz8YJyW3t-238" target="VgeGi53NFvHiz8YJyW3t-128">
          <mxGeometry width="50" height="50" relative="1" as="geometry">
            <mxPoint x="496" y="840" as="sourcePoint" />
            <mxPoint x="390" y="840" as="targetPoint" />
          </mxGeometry>
        </mxCell>
        <mxCell id="VgeGi53NFvHiz8YJyW3t-241" value="(1,n)" style="text;html=1;whiteSpace=wrap;strokeColor=none;fillColor=none;align=center;verticalAlign=middle;rounded=0;" vertex="1" parent="1">
          <mxGeometry x="520" y="700" width="60" height="30" as="geometry" />
        </mxCell>
        <mxCell id="VgeGi53NFvHiz8YJyW3t-242" value="(1,n)" style="text;html=1;whiteSpace=wrap;strokeColor=none;fillColor=none;align=center;verticalAlign=middle;rounded=0;" vertex="1" parent="1">
          <mxGeometry x="330" y="875" width="60" height="30" as="geometry" />
        </mxCell>
        <mxCell id="VgeGi53NFvHiz8YJyW3t-243" value="DISTRIBUYE POR" style="shape=table;startSize=30;container=1;collapsible=1;childLayout=tableLayout;fixedRows=1;rowLines=0;fontStyle=1;align=center;resizeLast=1;html=1;" vertex="1" parent="1">
          <mxGeometry x="1210" y="840" width="180" height="90" as="geometry" />
        </mxCell>
        <mxCell id="VgeGi53NFvHiz8YJyW3t-244" value="" style="shape=tableRow;horizontal=0;startSize=0;swimlaneHead=0;swimlaneBody=0;fillColor=none;collapsible=0;dropTarget=0;points=[[0,0.5],[1,0.5]];portConstraint=eastwest;top=0;left=0;right=0;bottom=1;" vertex="1" parent="VgeGi53NFvHiz8YJyW3t-243">
          <mxGeometry y="30" width="180" height="30" as="geometry" />
        </mxCell>
        <mxCell id="VgeGi53NFvHiz8YJyW3t-245" value="&lt;span style=&quot;font-weight: 400;&quot;&gt;PK_FK&lt;/span&gt;" style="shape=partialRectangle;connectable=0;fillColor=none;top=0;left=0;bottom=0;right=0;fontStyle=1;overflow=hidden;whiteSpace=wrap;html=1;" vertex="1" parent="VgeGi53NFvHiz8YJyW3t-244">
          <mxGeometry width="40.000000000000455" height="30" as="geometry">
            <mxRectangle width="40.000000000000455" height="30" as="alternateBounds" />
          </mxGeometry>
        </mxCell>
        <mxCell id="VgeGi53NFvHiz8YJyW3t-246" value="&lt;b&gt;&lt;u&gt;&lt;i&gt;DNI&lt;/i&gt;&lt;/u&gt;&lt;/b&gt;" style="shape=partialRectangle;connectable=0;fillColor=none;top=0;left=0;bottom=0;right=0;align=left;spacingLeft=6;fontStyle=5;overflow=hidden;whiteSpace=wrap;html=1;" vertex="1" parent="VgeGi53NFvHiz8YJyW3t-244">
          <mxGeometry x="40.000000000000455" width="139.99999999999955" height="30" as="geometry">
            <mxRectangle width="139.99999999999955" height="30" as="alternateBounds" />
          </mxGeometry>
        </mxCell>
        <mxCell id="VgeGi53NFvHiz8YJyW3t-247" value="" style="shape=tableRow;horizontal=0;startSize=0;swimlaneHead=0;swimlaneBody=0;fillColor=none;collapsible=0;dropTarget=0;points=[[0,0.5],[1,0.5]];portConstraint=eastwest;top=0;left=0;right=0;bottom=0;" vertex="1" parent="VgeGi53NFvHiz8YJyW3t-243">
          <mxGeometry y="60" width="180" height="30" as="geometry" />
        </mxCell>
        <mxCell id="VgeGi53NFvHiz8YJyW3t-248" value="PK_FK" style="shape=partialRectangle;connectable=0;fillColor=none;top=0;left=0;bottom=0;right=0;editable=1;overflow=hidden;whiteSpace=wrap;html=1;" vertex="1" parent="VgeGi53NFvHiz8YJyW3t-247">
          <mxGeometry width="40.000000000000455" height="30" as="geometry">
            <mxRectangle width="40.000000000000455" height="30" as="alternateBounds" />
          </mxGeometry>
        </mxCell>
        <mxCell id="VgeGi53NFvHiz8YJyW3t-249" value="&lt;u style=&quot;&quot;&gt;&lt;b&gt;&lt;i&gt;Cod_Provincia&lt;/i&gt;&lt;/b&gt;&lt;/u&gt;" style="shape=partialRectangle;connectable=0;fillColor=none;top=0;left=0;bottom=0;right=0;align=left;spacingLeft=6;overflow=hidden;whiteSpace=wrap;html=1;" vertex="1" parent="VgeGi53NFvHiz8YJyW3t-247">
          <mxGeometry x="40.000000000000455" width="139.99999999999955" height="30" as="geometry">
            <mxRectangle width="139.99999999999955" height="30" as="alternateBounds" />
          </mxGeometry>
        </mxCell>
        <mxCell id="VgeGi53NFvHiz8YJyW3t-253" value="N:M" style="text;html=1;whiteSpace=wrap;strokeColor=none;fillColor=none;align=center;verticalAlign=middle;rounded=0;" vertex="1" parent="1">
          <mxGeometry x="424" y="840" width="60" height="30" as="geometry" />
        </mxCell>
        <mxCell id="VgeGi53NFvHiz8YJyW3t-262" value="CONDUCE" style="shape=table;startSize=30;container=1;collapsible=1;childLayout=tableLayout;fixedRows=1;rowLines=0;fontStyle=1;align=center;resizeLast=1;html=1;" vertex="1" parent="1">
          <mxGeometry x="1210" y="480" width="180" height="120" as="geometry" />
        </mxCell>
        <mxCell id="VgeGi53NFvHiz8YJyW3t-263" value="" style="shape=tableRow;horizontal=0;startSize=0;swimlaneHead=0;swimlaneBody=0;fillColor=none;collapsible=0;dropTarget=0;points=[[0,0.5],[1,0.5]];portConstraint=eastwest;top=0;left=0;right=0;bottom=1;" vertex="1" parent="VgeGi53NFvHiz8YJyW3t-262">
          <mxGeometry y="30" width="180" height="30" as="geometry" />
        </mxCell>
        <mxCell id="VgeGi53NFvHiz8YJyW3t-264" value="&lt;span style=&quot;font-weight: 400;&quot;&gt;PK_FK&lt;/span&gt;" style="shape=partialRectangle;connectable=0;fillColor=none;top=0;left=0;bottom=0;right=0;fontStyle=1;overflow=hidden;whiteSpace=wrap;html=1;" vertex="1" parent="VgeGi53NFvHiz8YJyW3t-263">
          <mxGeometry width="40.000000000000455" height="30" as="geometry">
            <mxRectangle width="40.000000000000455" height="30" as="alternateBounds" />
          </mxGeometry>
        </mxCell>
        <mxCell id="VgeGi53NFvHiz8YJyW3t-265" value="&lt;b&gt;&lt;u&gt;&lt;i&gt;DNI&lt;/i&gt;&lt;/u&gt;&lt;/b&gt;" style="shape=partialRectangle;connectable=0;fillColor=none;top=0;left=0;bottom=0;right=0;align=left;spacingLeft=6;fontStyle=5;overflow=hidden;whiteSpace=wrap;html=1;" vertex="1" parent="VgeGi53NFvHiz8YJyW3t-263">
          <mxGeometry x="40.000000000000455" width="139.99999999999955" height="30" as="geometry">
            <mxRectangle width="139.99999999999955" height="30" as="alternateBounds" />
          </mxGeometry>
        </mxCell>
        <mxCell id="VgeGi53NFvHiz8YJyW3t-266" value="" style="shape=tableRow;horizontal=0;startSize=0;swimlaneHead=0;swimlaneBody=0;fillColor=none;collapsible=0;dropTarget=0;points=[[0,0.5],[1,0.5]];portConstraint=eastwest;top=0;left=0;right=0;bottom=0;" vertex="1" parent="VgeGi53NFvHiz8YJyW3t-262">
          <mxGeometry y="60" width="180" height="30" as="geometry" />
        </mxCell>
        <mxCell id="VgeGi53NFvHiz8YJyW3t-267" value="PK_FK" style="shape=partialRectangle;connectable=0;fillColor=none;top=0;left=0;bottom=0;right=0;editable=1;overflow=hidden;whiteSpace=wrap;html=1;" vertex="1" parent="VgeGi53NFvHiz8YJyW3t-266">
          <mxGeometry width="40.000000000000455" height="30" as="geometry">
            <mxRectangle width="40.000000000000455" height="30" as="alternateBounds" />
          </mxGeometry>
        </mxCell>
        <mxCell id="VgeGi53NFvHiz8YJyW3t-268" value="&lt;u style=&quot;&quot;&gt;&lt;b&gt;&lt;i&gt;Matrícula&lt;/i&gt;&lt;/b&gt;&lt;/u&gt;" style="shape=partialRectangle;connectable=0;fillColor=none;top=0;left=0;bottom=0;right=0;align=left;spacingLeft=6;overflow=hidden;whiteSpace=wrap;html=1;" vertex="1" parent="VgeGi53NFvHiz8YJyW3t-266">
          <mxGeometry x="40.000000000000455" width="139.99999999999955" height="30" as="geometry">
            <mxRectangle width="139.99999999999955" height="30" as="alternateBounds" />
          </mxGeometry>
        </mxCell>
        <mxCell id="VgeGi53NFvHiz8YJyW3t-269" style="shape=tableRow;horizontal=0;startSize=0;swimlaneHead=0;swimlaneBody=0;fillColor=none;collapsible=0;dropTarget=0;points=[[0,0.5],[1,0.5]];portConstraint=eastwest;top=0;left=0;right=0;bottom=0;" vertex="1" parent="VgeGi53NFvHiz8YJyW3t-262">
          <mxGeometry y="90" width="180" height="30" as="geometry" />
        </mxCell>
        <mxCell id="VgeGi53NFvHiz8YJyW3t-270" value="PK" style="shape=partialRectangle;connectable=0;fillColor=none;top=0;left=0;bottom=0;right=0;editable=1;overflow=hidden;whiteSpace=wrap;html=1;" vertex="1" parent="VgeGi53NFvHiz8YJyW3t-269">
          <mxGeometry width="40.000000000000455" height="30" as="geometry">
            <mxRectangle width="40.000000000000455" height="30" as="alternateBounds" />
          </mxGeometry>
        </mxCell>
        <mxCell id="VgeGi53NFvHiz8YJyW3t-271" value="&lt;b&gt;&lt;u&gt;Fecha&lt;/u&gt;&lt;/b&gt;" style="shape=partialRectangle;connectable=0;fillColor=none;top=0;left=0;bottom=0;right=0;align=left;spacingLeft=6;overflow=hidden;whiteSpace=wrap;html=1;" vertex="1" parent="VgeGi53NFvHiz8YJyW3t-269">
          <mxGeometry x="40.000000000000455" width="139.99999999999955" height="30" as="geometry">
            <mxRectangle width="139.99999999999955" height="30" as="alternateBounds" />
          </mxGeometry>
        </mxCell>
        <mxCell id="VgeGi53NFvHiz8YJyW3t-275" value="Fecha" style="ellipse;whiteSpace=wrap;html=1;" vertex="1" parent="1">
          <mxGeometry x="760" y="765" width="80" height="40" as="geometry" />
        </mxCell>
        <mxCell id="VgeGi53NFvHiz8YJyW3t-276" value="" style="endArrow=none;html=1;rounded=0;exitX=0;exitY=0.5;exitDx=0;exitDy=0;entryX=1;entryY=0.5;entryDx=0;entryDy=0;" edge="1" parent="1" source="VgeGi53NFvHiz8YJyW3t-275" target="VgeGi53NFvHiz8YJyW3t-109">
          <mxGeometry width="50" height="50" relative="1" as="geometry">
            <mxPoint x="782" y="740" as="sourcePoint" />
            <mxPoint x="730" y="786" as="targetPoint" />
          </mxGeometry>
        </mxCell>
        <mxCell id="VgeGi53NFvHiz8YJyW3t-277" value="" style="edgeStyle=entityRelationEdgeStyle;fontSize=12;html=1;endArrow=ERoneToMany;rounded=0;exitX=1;exitY=0.5;exitDx=0;exitDy=0;entryX=0;entryY=0.5;entryDx=0;entryDy=0;" edge="1" parent="1" source="VgeGi53NFvHiz8YJyW3t-146" target="VgeGi53NFvHiz8YJyW3t-139">
          <mxGeometry width="100" height="100" relative="1" as="geometry">
            <mxPoint x="930" y="915" as="sourcePoint" />
            <mxPoint x="1030" y="815" as="targetPoint" />
          </mxGeometry>
        </mxCell>
        <mxCell id="VgeGi53NFvHiz8YJyW3t-278" value="" style="edgeStyle=entityRelationEdgeStyle;fontSize=12;html=1;endArrow=ERmany;startArrow=ERmany;rounded=0;entryX=0;entryY=0.5;entryDx=0;entryDy=0;exitX=1.008;exitY=0.259;exitDx=0;exitDy=0;exitPerimeter=0;" edge="1" parent="1" source="VgeGi53NFvHiz8YJyW3t-146" target="VgeGi53NFvHiz8YJyW3t-244">
          <mxGeometry width="100" height="100" relative="1" as="geometry">
            <mxPoint x="840" y="760" as="sourcePoint" />
            <mxPoint x="940" y="660" as="targetPoint" />
          </mxGeometry>
        </mxCell>
        <mxCell id="VgeGi53NFvHiz8YJyW3t-279" value="" style="edgeStyle=entityRelationEdgeStyle;fontSize=12;html=1;endArrow=ERmany;startArrow=ERmany;rounded=0;entryX=0;entryY=0.5;entryDx=0;entryDy=0;exitX=1.014;exitY=0.769;exitDx=0;exitDy=0;exitPerimeter=0;" edge="1" parent="1" source="VgeGi53NFvHiz8YJyW3t-146" target="VgeGi53NFvHiz8YJyW3t-263">
          <mxGeometry width="100" height="100" relative="1" as="geometry">
            <mxPoint x="1120" y="420" as="sourcePoint" />
            <mxPoint x="1239" y="787" as="targetPoint" />
          </mxGeometry>
        </mxCell>
        <mxCell id="VgeGi53NFvHiz8YJyW3t-280" value="" style="edgeStyle=entityRelationEdgeStyle;fontSize=12;html=1;endArrow=ERmany;startArrow=ERmany;rounded=0;entryX=0;entryY=0.5;entryDx=0;entryDy=0;exitX=1;exitY=0.5;exitDx=0;exitDy=0;" edge="1" parent="1" source="VgeGi53NFvHiz8YJyW3t-266" target="VgeGi53NFvHiz8YJyW3t-168">
          <mxGeometry width="100" height="100" relative="1" as="geometry">
            <mxPoint x="1390" y="360" as="sourcePoint" />
            <mxPoint x="1509" y="727" as="targetPoint" />
          </mxGeometry>
        </mxCell>
        <mxCell id="VgeGi53NFvHiz8YJyW3t-281" value="" style="edgeStyle=entityRelationEdgeStyle;fontSize=12;html=1;endArrow=ERoneToMany;rounded=0;entryX=1;entryY=0.5;entryDx=0;entryDy=0;exitX=0;exitY=0.5;exitDx=0;exitDy=0;" edge="1" parent="1" source="VgeGi53NFvHiz8YJyW3t-223" target="VgeGi53NFvHiz8YJyW3t-136">
          <mxGeometry width="100" height="100" relative="1" as="geometry">
            <mxPoint x="840" y="760" as="sourcePoint" />
            <mxPoint x="940" y="660" as="targetPoint" />
          </mxGeometry>
        </mxCell>
        <mxCell id="VgeGi53NFvHiz8YJyW3t-282" value="" style="edgeStyle=entityRelationEdgeStyle;fontSize=12;html=1;endArrow=ERmany;startArrow=ERmany;rounded=0;entryX=-0.002;entryY=0.151;entryDx=0;entryDy=0;exitX=1;exitY=0.5;exitDx=0;exitDy=0;entryPerimeter=0;" edge="1" parent="1" source="VgeGi53NFvHiz8YJyW3t-247" target="VgeGi53NFvHiz8YJyW3t-223">
          <mxGeometry width="100" height="100" relative="1" as="geometry">
            <mxPoint x="1430" y="870" as="sourcePoint" />
            <mxPoint x="1540" y="840" as="targetPoint" />
          </mxGeometry>
        </mxCell>
      </root>
    </mxGraphModel>
  </diagram>
</mxfile>
